<?xml version="1.0" encoding="UTF-8" standalone="no"?>
<!DOCTYPE svg PUBLIC "-//W3C//DTD SVG 20010904//EN"
              "http://www.w3.org/TR/2001/REC-SVG-20010904/DTD/svg10.dtd">

<svg xmlns="http://www.w3.org/2000/svg"
     width="3.26667in" height="3.13333in"
     viewBox="0 0 980 940">
  <path id="Selectie"
        fill="gray" stroke="gray" stroke-width="1"
        d="M 697.00,476.00
           C 697.00,476.00 714.75,440.00 714.75,440.00
             714.75,440.00 747.26,375.00 747.26,375.00
             747.26,375.00 754.75,361.00 754.75,361.00
             754.75,361.00 882.25,108.00 882.25,108.00
             882.25,108.00 923.25,27.00 923.25,27.00
             930.83,11.84 935.30,-0.46 955.00,0.01
             971.80,0.42 980.18,12.14 980.00,28.00
             979.87,39.01 969.36,55.77 964.25,66.00
             964.25,66.00 925.25,143.00 925.25,143.00
             925.25,143.00 797.75,396.00 797.75,396.00
             797.75,396.00 781.25,428.00 781.25,428.00
             781.25,428.00 738.75,512.00 738.75,512.00
             731.32,526.84 727.77,540.82 709.00,543.56
             698.20,545.14 690.11,538.95 682.00,532.87
             682.00,532.87 649.00,508.37 649.00,508.37
             649.00,508.37 546.00,431.88 546.00,431.88
             546.00,431.88 495.00,394.00 495.00,394.00
             491.79,400.23 485.25,408.16 480.87,414.00
             480.87,414.00 458.37,444.00 458.37,444.00
             458.37,444.00 382.37,545.00 382.37,545.00
             382.37,545.00 348.63,590.00 348.63,590.00
             344.02,596.14 336.00,608.16 330.00,612.03
             323.18,616.44 311.12,617.64 303.00,619.20
             303.00,619.20 246.00,629.25 246.00,629.25
             246.00,629.25 112.00,653.08 112.00,653.08
             112.00,653.08 53.00,663.00 53.00,663.00
             53.00,663.00 53.00,887.00 53.00,887.00
             53.00,887.00 765.00,887.00 765.00,887.00
             765.00,887.00 952.00,887.00 952.00,887.00
             970.26,887.03 980.21,896.64 980.00,915.00
             979.80,931.70 967.64,939.98 952.00,940.00
             952.00,940.00 0.00,940.00 0.00,940.00
             0.00,940.00 0.00,201.00 0.00,201.00
             0.01,193.79 0.66,188.91 5.53,183.09
             15.19,171.54 34.12,170.90 44.91,181.18
             51.69,187.65 52.99,195.08 53.00,204.00
             53.00,204.00 53.00,609.00 53.00,609.00
             53.00,609.00 113.00,598.42 113.00,598.42
             113.00,598.42 233.00,577.08 233.00,577.08
             233.00,577.08 280.00,568.75 280.00,568.75
             286.00,567.75 296.45,567.00 300.83,562.85
             300.83,562.85 315.37,544.00 315.37,544.00
             315.37,544.00 343.87,506.00 343.87,506.00
             343.87,506.00 431.63,389.00 431.63,389.00
             431.63,389.00 461.63,349.00 461.63,349.00
             468.70,339.56 474.06,331.13 487.00,330.09
             500.96,328.97 507.58,335.81 518.00,343.63
             518.00,343.63 549.00,366.63 549.00,366.63
             549.00,366.63 637.00,431.87 637.00,431.87
             637.00,431.87 697.00,476.00 697.00,476.00 Z" />
</svg>
