<?xml version="1.0" encoding="UTF-8" standalone="no"?>
<!DOCTYPE svg PUBLIC "-//W3C//DTD SVG 20010904//EN"
              "http://www.w3.org/TR/2001/REC-SVG-20010904/DTD/svg10.dtd">

<svg xmlns="http://www.w3.org/2000/svg"
     width="1.70667in" height="1.70667in"
     viewBox="0 0 512 512">
  <path id="Selectie"
        fill="gray" stroke="gray" stroke-width="1"
        d="M 307.00,190.00
           C 307.00,190.00 307.00,159.00 307.00,159.00
             307.00,156.73 306.78,153.34 308.02,151.39
             309.56,148.98 316.25,146.13 319.00,144.75
             319.00,144.75 346.00,131.25 346.00,131.25
             346.00,131.25 384.00,112.34 384.00,112.34
             389.35,109.68 395.70,107.38 400.57,112.34
             403.36,115.30 402.99,119.30 403.00,123.00
             403.00,123.00 404.00,145.00 404.00,145.00
             404.00,145.00 404.00,270.00 404.00,270.00
             404.00,270.00 405.00,285.00 405.00,285.00
             405.00,285.00 405.00,347.00 405.00,347.00
             405.02,357.66 408.62,358.62 416.00,366.00
             421.81,371.81 432.59,381.84 437.00,388.00
             434.43,390.57 426.33,399.80 423.00,399.80
             420.16,399.80 415.96,394.95 414.00,393.00
             408.18,387.20 394.12,375.22 392.00,368.00
             396.32,366.97 404.25,363.76 403.18,358.00
             402.60,354.93 396.35,349.35 394.00,347.00
             394.00,347.00 368.00,321.00 368.00,321.00
             365.65,318.65 359.39,313.10 358.87,310.00
             358.40,307.16 365.51,296.78 367.13,293.00
             371.83,282.05 373.13,272.78 373.00,261.00
             372.69,235.04 355.54,210.35 333.00,198.32
             324.89,194.00 315.97,191.69 307.00,190.00 Z
           M 210.00,112.00
           C 210.00,112.00 238.00,125.75 238.00,125.75
             238.00,125.75 270.00,141.25 270.00,141.25
             273.54,143.01 286.30,148.19 288.01,150.63
             289.25,152.42 289.00,155.87 289.00,158.00
             289.00,158.00 289.00,182.00 289.00,182.00
             289.00,183.97 289.26,187.69 288.01,189.27
             286.69,190.92 283.01,191.38 281.00,191.89
             276.44,193.05 273.24,194.21 269.00,196.26
             254.64,203.19 244.57,211.31 236.06,225.00
             228.20,237.65 225.28,248.26 224.74,263.00
             223.44,298.55 253.22,333.99 289.00,337.00
             289.00,337.00 289.00,403.00 289.00,403.00
             289.00,403.00 261.00,390.25 261.00,390.25
             261.00,390.25 227.00,373.75 227.00,373.75
             227.00,373.75 209.99,364.37 209.99,364.37
             209.99,364.37 209.00,357.00 209.00,357.00
             209.00,357.00 209.00,190.00 209.00,190.00
             209.00,190.00 209.00,139.00 209.00,139.00
             209.00,139.00 210.00,112.00 210.00,112.00 Z
           M 190.00,113.00
           C 191.80,117.55 191.00,130.47 191.00,136.00
             191.00,136.00 191.00,186.00 191.00,186.00
             191.00,186.00 191.00,358.00 191.00,358.00
             191.00,359.88 191.12,363.11 190.40,364.79
             188.89,368.32 176.82,374.11 173.00,376.28
             173.00,376.28 132.00,399.23 132.00,399.23
             127.44,401.71 119.12,407.37 114.00,406.73
             105.40,405.66 105.01,395.66 105.00,389.00
             105.00,389.00 105.00,174.00 105.00,174.00
             105.01,169.89 104.98,164.74 107.14,161.09
             109.90,156.42 122.83,150.35 128.00,147.42
             128.00,147.42 190.00,113.00 190.00,113.00 Z
           M 291.00,208.44
           C 299.66,207.33 308.69,208.02 317.00,210.75
             354.82,223.15 366.52,269.73 342.19,300.00
             337.46,305.89 330.78,311.23 324.00,314.63
             314.66,319.30 306.20,320.12 296.00,320.00
             255.66,319.52 231.76,275.39 247.90,240.00
             256.33,221.51 271.65,212.01 291.00,208.44 Z
           M 307.00,403.00
           C 307.00,403.00 307.00,346.00 307.00,346.00
             307.00,343.96 306.76,340.23 308.02,338.58
             309.50,336.64 314.60,336.14 317.00,335.52
             322.51,334.11 328.01,331.92 333.00,329.21
             336.05,327.55 341.78,322.63 345.00,323.44
             347.88,324.16 355.52,332.52 358.00,335.00
             358.00,335.00 379.00,356.00 379.00,356.00
             383.33,360.33 388.35,364.40 391.00,370.00
             391.00,370.00 336.00,392.20 336.00,392.20
             336.00,392.20 307.00,403.00 307.00,403.00 Z" />
</svg>
